Patient4_TMGait_0pt8_01_left_24_EMG.mot
version=1
nRows=23
nColumns=33
inDegrees=no
endheader
time	1LAddLong	2LGlutMax	3LGlutMed	4LIliopsoas	5LSemiMemb	6LBicFemLong	7LRecFem	8LVastMed	9LVastLat	10LGasMed	11LTibAnt	12lTibPost	13LPeroneusLong	14LSol	15LExtDigLong	16LFlexDigLong	17RAddLong	18RGlutMax	19RGlutMed	20RIliopsoas	21RSemiMemb	22RBicFemLong	23RRecFem	24RVastMed	25RVastLat	26RGasMed	27RTibAnt	28RTibPost	29RPeroneusLong	30RSol	31RExtDigLong	32RFlexDigLong
27	0.014191	0.045166	0.22385	-0.004578	0.016785	-0.014954	-0.45288	0.002594	-0.037689	-0.27924	-0.002136	-0.061646	0.18448	0.14969	0.029449	0.072632	-0.028381	0.073547	0.19287	-0.047913	0.52002	0.62286	-0.28	0.46371	-0.083923	-0.024414	0.19531	-0.009613	0.031738	-0.08606	0.003357	-0.01358
27.001	0.015717	0.10147	0.26596	0.001984	-0.001984	0.003052	-0.43137	-0.000458	-0.038452	-0.70328	0.000153	0.12405	0.20248	0.15854	0.061951	-0.025787	-0.000305	0.18295	1.2231	-0.11444	0.42633	0.4689	-0.18387	0.24826	-0.10941	-0.02655	0.16754	-0.011139	0.031433	-0.094452	0.002594	0.001068
27.002	0.020599	0.13229	0.29648	0.015411	0.015869	-0.021667	-0.43747	0.001831	-0.040131	-0.62622	0.009308	0.62576	0.1149	0.38834	0.08606	-0.039063	0.03952	0.19241	1.8703	-0.023499	0.23453	0.34683	-0.12375	-0.18051	-0.14038	-0.026093	0.22293	-0.008698	0.018768	-0.091095	0.00351	-0.003662
27.003	0.015564	0.081177	0.35034	0.013428	0.032501	-0.029907	-0.40878	0.001831	-0.046692	-0.42755	0.010529	0.15015	-0.18402	0.59357	0.053253	-0.13092	-0.039368	0.069427	1.0258	0.10269	0.28992	0.55313	-0.26825	-0.19241	-0.099487	-0.021667	0.29236	-0.000916	-0.02533	-0.086517	0.013733	-0.00412
27.004	0.019073	0.055237	0.36896	-0.001221	0.029297	-0.040894	-0.43076	0.001984	-0.04303	-0.16708	-0.004272	-0.47989	-0.19409	0.45837	0.027313	-0.15884	-0.074921	-0.13138	0.53741	0.19943	0.54993	0.59677	-0.38742	-0.18387	-0.082855	-0.020447	0.44876	-0.00885	-0.11566	-0.13092	0.002441	-0.009918
27.005	0.014343	0.023041	0.37537	-0.005493	0.0354	0.001221	-0.4158	0.001373	-0.044556	0.168	-0.003815	-0.088043	-0.075073	0.40161	0.014648	0.078583	-0.029144	-0.22659	1.0995	0.016479	0.43381	0.46234	-0.42648	-0.19699	-0.16541	-0.024719	0.52109	-0.010223	-0.089417	-0.13046	0.003967	0.001831
27.006	0.019379	0.065613	0.40634	-0.01358	0.016937	0.023346	-0.38757	-0.001526	-0.043945	0.35019	0.00351	0.027161	-0.006866	0.51575	-0.001526	0.097504	0.018616	-0.22888	0.8313	-0.067444	0.27893	0.38498	-0.38498	0.06012	-0.32074	-0.021515	0.3978	-0.007935	-0.070648	-0.14694	0.002594	-0.005188
27.007	0.015106	0.090485	0.39337	0.001526	0.0177	0.034485	-0.3775	0.002594	-0.046387	-0.007019	-0.011902	0.078278	0.16068	0.2005	-0.077972	-0.18265	0.011597	-0.22263	0.8255	-0.061493	0.14252	0.53223	-0.48798	0.37094	-0.38071	-0.024109	0.12451	-0.012512	0.012207	-0.1268	0.006714	-0.001373
27.008	0.01709	0.093079	0.45227	0.027924	0.015106	0.018616	-0.35507	0.003815	-0.032959	-0.094299	-0.006256	0.18326	0.15823	-0.30853	-0.022583	0.18372	0.055237	-0.25864	0.85449	-0.062103	-0.018921	0.43518	-0.71365	0.22781	-0.056763	-0.021667	-0.55389	-0.02121	0.021973	-0.11597	0.004272	0.003967
27.009	0.021667	0.11459	0.49652	0.006104	0.000458	0.02655	-0.35385	0.000153	-0.032806	0.002747	-0.002594	-0.072937	0.1004	-0.72906	-0.017853	0.17044	0.06485	-0.1973	0.74265	0.080414	-0.036926	0.23651	-0.96435	0.089111	0.68283	-0.022583	-0.98541	-0.016022	0.03479	-0.12955	0.005646	0.001221
27.01	0.015717	0.1767	0.46921	-0.001984	0.003662	0.01709	-0.31113	0.002441	-0.013733	0.072632	0.006714	-0.029144	0.068207	-1.0126	-0.053406	-0.021515	0.054321	-0.15656	0.40329	0.22003	0.24307	0.053253	-0.96603	0.014801	0.62302	-0.02243	-0.50446	-0.025024	-0.019073	-0.19211	0.006714	-0.002289
27.011	0.023804	0.14023	0.36728	-0.011139	0.007782	0.015869	-0.33096	-0.003662	-0.023499	0.046387	0.008392	-0.10269	0.02655	-0.82809	-0.06012	-0.014343	0.077515	-0.10162	0.51575	0.15091	0.54901	0.075226	-0.79346	-0.31311	0.21378	-0.022583	0.081635	-0.015564	-0.10681	-0.16174	0.004883	-0.013733
27.012	0.022125	0.1442	0.44434	0.005188	0.013885	0.011597	-0.31677	0.001526	-0.029602	0.043488	0.003967	-0.061951	0.032501	-0.057831	-0.02121	-0.01358	0.009003	-0.031738	0.35919	0.036469	0.35477	0.11612	-0.7692	-0.4454	0.13077	-0.02121	0.26794	-0.016022	-0.10117	-0.065918	0.006104	-0.003052
27.013	0.016479	0.16647	0.5658	0.009766	0.028381	-0.033569	-0.29556	-0.007324	-0.023041	0.075378	-0.000763	-0.042572	0.033722	0.025482	-0.006866	-0.015259	-0.08316	0.03891	0.18997	0.023956	0.14481	0.11429	-0.84549	-0.35767	0.51773	-0.011597	0.081787	-0.015106	-0.026855	-0.012665	0.00061	-0.012512
27.014	0.026855	0.18372	0.62805	0.039825	0.029602	-0.04303	-0.28671	-0.005951	-0.024109	-0.005646	-0.001068	-0.030212	0.045929	0.35996	0.014801	-0.027313	-0.13199	-0.095825	0.028992	-0.013428	0.26428	0.049133	-0.45548	-0.39566	0.27832	-0.025635	-0.31937	-0.018463	0.12985	0.013733	0.00351	-0.024872
27.015	0.024414	0.18936	0.58914	-0.010681	0.02182	-0.005341	-0.27496	-0.006714	-0.023193	-0.061646	0.00351	-0.032959	0.053558	0.51117	0.022125	-0.010071	-0.024109	-0.10849	-0.001068	0.022125	0.30792	-0.14145	-0.33402	-0.88089	0.000305	-0.019226	-0.49896	-0.014038	0.19318	-0.028076	0.00473	-0.020905
27.016	0.022125	0.2298	0.53406	-0.02243	0.014648	0.01709	-0.22964	-0.00351	-0.020752	-0.085754	0.011444	-0.033417	0.042114	0.30411	0.030365	-0.006409	0.063629	-0.0737	0.44708	-0.050049	0.22018	-0.040283	-0.32623	-0.7428	-0.42053	-0.016479	-0.3804	-0.009918	0.29159	-0.097809	0.005493	-0.022278
27.017	0.020752	0.2211	0.53696	-0.000916	0.008087	0.011139	-0.21576	-0.001526	-0.014038	-0.079193	-0.000305	-0.031891	0.052338	0.11032	0.033569	0.024109	0.06134	-0.15091	0.67001	-0.18295	0.077057	0.27863	-0.32242	-0.36652	-0.63004	-0.014343	-0.26062	-0.014191	0.20111	-0.091248	0.00473	-0.023193
27.018	0.021973	0.19272	0.58258	-0.002441	0.019073	0.016174	-0.19577	-0.004425	-0.002899	-0.071259	-0.004578	-0.030518	0.073853	0.015564	0.007324	0.022583	0.054016	-0.24506	0.57404	-0.16693	0.034943	0.23743	-0.33585	-0.22308	-0.32547	-0.021362	-0.45136	-0.010376	0.15091	-0.0737	0.003052	-0.021973
27.019	0.017853	0.19898	0.58151	0.007629	0.016632	-0.025635	-0.17914	-0.001984	0.002747	-0.078278	0.010223	-0.036469	0.016479	0.018921	0.007629	0.002594	0.065308	-0.24902	0.27252	-0.053711	0.025177	0.013885	-0.32181	-0.062561	-0.18341	-0.017548	-0.6282	-0.015259	0.15915	-0.098724	0.001221	-0.014496
27.02	0.01709	0.2005	0.57144	0.005798	0.016937	-0.010834	-0.19241	-0.003357	0	-0.082397	0.014343	0.032959	0.076752	0.11673	0.01236	0.008087	0.11932	-0.24414	0.45898	-0.031586	0.19943	-0.11002	-0.24811	-0.159	0.25253	-0.020599	-0.65659	-0.005341	0.085297	-0.11414	0.00412	-0.003357
27.021	0.020447	0.18494	0.56717	0.01236	0.016022	-0.022125	-0.14114	0.002594	0.005493	-0.09079	0.014954	0.45258	0.077972	0.17059	0.034943	0.00885	0.18814	-0.31952	0.31067	-0.068359	0.005341	-0.18784	-0.31418	-0.34134	0.68787	-0.016022	-0.23468	-0.002899	0.026093	-0.14221	0.001221	0.002441
27.022	0.016174	0.15579	0.54092	-0.005798	0.01236	-0.015106	-0.13016	0.002747	0.005341	-0.088501	0.014191	0.21439	0.030212	0.39017	0.021057	-0.022888	0.26489	-0.31799	0.067902	-0.061493	-0.26398	-0.24414	-0.36652	-0.40237	0.69214	-0.010071	0.59097	-0.002747	-0.0354	-0.2063	0.003204	0.00473
